<?xml version="1.0" encoding="iso-8859-1"?>
<!-- Generator: Adobe Illustrator 16.0.0, SVG Export Plug-In . SVG Version: 6.00 Build 0)  -->
<!DOCTYPE svg PUBLIC "-//W3C//DTD SVG 1.1//EN" "https://www.w3.org/Graphics/SVG/1.1/DTD/svg11.dtd">
<svg version="1.1" xmlns="https://www.w3.org/2000/svg" xmlns:xlink="https://www.w3.org/1999/xlink" x="0px" y="0px" width="520px"
	 height="520px" viewBox="0 0 520 520" style="enable-background:new 0 0 520 520;" xml:space="preserve">
<g id="_x38_94_x2C__Electronics_x2C__Microphone_x2C__Sound_Recorder">
	<g>
		<circle style="fill:#9BC9FF;" cx="442.5" cy="115" r="30"/>
		<path style="fill:#9BC9FF;" d="M92.5,360c11.05,0,20,8.95,20,20s-8.95,20-20,20s-20-8.95-20-20S81.45,360,92.5,360z"/>
		<path style="fill:#FFFFFF;" d="M312.5,440c13.811,0,25,11.19,25,25c0,6.9-2.8,13.16-7.32,17.68C325.66,487.2,319.4,490,312.5,490
			h-110c-13.81,0-25-11.19-25-25c0-6.9,2.8-13.16,7.32-17.68c4.52-4.521,10.78-7.32,17.68-7.32h35h40H312.5z"/>
		<path style="fill:#9BC9FF;" d="M347.5,225c0,49.71-40.29,90-90,90V30c49.707,0,90,40.279,90,90
			C347.5,132.964,347.5,209.852,347.5,225z"/>
		<path style="fill:#9BC9FF;" d="M167.5,120c0-49.71,40.29-90,90-90v285c-49.71,0-90-40.29-90-90
			C167.5,206.541,167.5,131.892,167.5,120z"/>
		<circle style="fill:#1E81CE;" cx="460" cy="217.5" r="7.5"/>
		<circle style="fill:#1E81CE;" cx="430" cy="442.5" r="7.5"/>
		<circle style="fill:#1E81CE;" cx="390" cy="337.5" r="7.5"/>
		<circle style="fill:#1E81CE;" cx="375" cy="42.5" r="7.5"/>
		<circle style="fill:#1E81CE;" cx="160" cy="412.5" r="7.5"/>
		<circle style="fill:#1E81CE;" cx="105" cy="162.5" r="7.5"/>
		<circle style="fill:#1E81CE;" cx="75" cy="277.5" r="7.5"/>
		<circle style="fill:#1E81CE;" cx="50" cy="57.5" r="7.5"/>
		<path style="fill:#1E81CE;" d="M202.5,175h-35c-2.761,0-5-2.239-5-5s2.239-5,5-5h35c2.761,0,5,2.239,5,5S205.261,175,202.5,175z"
			/>
		<path style="fill:#1E81CE;" d="M347.5,175h-35c-2.762,0-5-2.239-5-5s2.238-5,5-5h35c2.762,0,5,2.239,5,5S350.262,175,347.5,175z"
			/>
		<path style="fill:#1E81CE;" d="M202.5,155h-35c-2.761,0-5-2.239-5-5s2.239-5,5-5h35c2.761,0,5,2.239,5,5S205.261,155,202.5,155z"
			/>
		<path style="fill:#1E81CE;" d="M202.5,135h-35c-2.761,0-5-2.239-5-5s2.239-5,5-5h35c2.761,0,5,2.239,5,5S205.261,135,202.5,135z"
			/>
		<path style="fill:#1E81CE;" d="M347.5,155h-35c-2.762,0-5-2.239-5-5s2.238-5,5-5h35c2.762,0,5,2.239,5,5S350.262,155,347.5,155z"
			/>
		<path style="fill:#1E81CE;" d="M347.5,135h-35c-2.762,0-5-2.239-5-5s2.238-5,5-5h35c2.762,0,5,2.239,5,5S350.262,135,347.5,135z"
			/>
		<path style="fill:#1E81CE;" d="M202.5,215h-35c-2.761,0-5-2.239-5-5s2.239-5,5-5h35c2.761,0,5,2.239,5,5S205.261,215,202.5,215z"
			/>
		<path style="fill:#1E81CE;" d="M202.5,195h-35c-2.761,0-5-2.239-5-5s2.239-5,5-5h35c2.761,0,5,2.239,5,5S205.261,195,202.5,195z"
			/>
		<path style="fill:#1E81CE;" d="M347.5,215h-35c-2.762,0-5-2.239-5-5s2.238-5,5-5h35c2.762,0,5,2.239,5,5S350.262,215,347.5,215z"
			/>
		<path style="fill:#1E81CE;" d="M347.5,195h-35c-2.762,0-5-2.239-5-5s2.238-5,5-5h35c2.762,0,5,2.239,5,5S350.262,195,347.5,195z"
			/>
		<path style="fill:#1E81CE;" d="M257.5,320c-52.383,0-95-42.617-95-95V120c0-52.383,42.617-95,95-95
			c25.387,0,49.244,9.882,67.177,27.825C342.618,70.756,352.5,94.613,352.5,120v105C352.5,277.383,309.883,320,257.5,320z M257.5,35
			c-46.869,0-85,38.131-85,85v105c0,46.869,38.131,85,85,85s85-38.131,85-85V120c0-22.715-8.841-44.06-24.895-60.104
			C301.56,43.841,280.215,35,257.5,35z"/>
		<path style="fill:#1E81CE;" d="M312.5,495h-110c-16.542,0-30-13.458-30-30c0-8.017,3.12-15.551,8.785-21.216
			C186.949,438.12,194.483,435,202.5,435h35c2.761,0,5,2.238,5,5s-2.239,5-5,5h-35c-5.346,0-10.369,2.079-14.145,5.855
			S182.5,459.654,182.5,465c0,11.028,8.972,20,20,20h110c5.346,0,10.369-2.079,14.145-5.855S332.5,470.346,332.5,465
			c0-11.028-8.973-20-20-20h-35c-2.762,0-5-2.238-5-5s2.238-5,5-5h35c16.542,0,30,13.458,30,30c0,8.017-3.119,15.551-8.785,21.216
			C328.051,491.88,320.517,495,312.5,495z"/>
		<path style="fill:#1E81CE;" d="M277.5,445h-40c-2.761,0-5-2.238-5-5v-82.411c-28.518-5.564-54.528-20.683-73.615-42.881
			C138.646,291.169,127.5,261.086,127.5,230v-45c0-2.761,2.239-5,5-5s5,2.239,5,5v45c0,59.253,42.39,109.074,100.793,118.464
			c2.424,0.39,4.207,2.481,4.207,4.937V435h30v-81.6c0-2.455,1.782-4.547,4.207-4.937C335.11,339.074,377.5,289.253,377.5,230v-45
			c0-2.761,2.238-5,5-5s5,2.239,5,5v45c0,31.086-11.146,61.169-31.385,84.708c-19.088,22.198-45.098,37.316-73.615,42.881V440
			C282.5,442.762,280.262,445,277.5,445z"/>
		<path style="fill:#1E81CE;" d="M257.5,320c-2.761,0-5-2.238-5-5V30c0-2.761,2.239-5,5-5c2.762,0,5,2.239,5,5v285
			C262.5,317.762,260.262,320,257.5,320z"/>
		<path style="fill:#1E81CE;" d="M442.5,150c-19.299,0-35-15.701-35-35s15.701-35,35-35s35,15.701,35,35S461.799,150,442.5,150z
			 M442.5,90c-13.785,0-25,11.215-25,25s11.215,25,25,25s25-11.215,25-25S456.285,90,442.5,90z"/>
		<path style="fill:#1E81CE;" d="M92.5,405c-13.785,0-25-11.215-25-25s11.215-25,25-25s25,11.215,25,25S106.285,405,92.5,405z
			 M92.5,365c-8.271,0-15,6.729-15,15s6.729,15,15,15s15-6.729,15-15S100.771,365,92.5,365z"/>
		<circle style="fill:#9BC9FF;" cx="442.5" cy="115" r="30"/>
		<path style="fill:#9BC9FF;" d="M92.5,360c11.05,0,20,8.95,20,20s-8.95,20-20,20s-20-8.95-20-20S81.45,360,92.5,360z"/>
		<path style="fill:#FFFFFF;" d="M312.5,440c13.811,0,25,11.19,25,25c0,6.9-2.8,13.16-7.32,17.68C325.66,487.2,319.4,490,312.5,490
			h-110c-13.81,0-25-11.19-25-25c0-6.9,2.8-13.16,7.32-17.68c4.52-4.521,10.78-7.32,17.68-7.32h35h40H312.5z"/>
		<path style="fill:#9BC9FF;" d="M347.5,225c0,49.71-40.29,90-90,90V30c49.707,0,90,40.279,90,90
			C347.5,132.964,347.5,209.852,347.5,225z"/>
		<path style="fill:#9BC9FF;" d="M167.5,120c0-49.71,40.29-90,90-90v285c-49.71,0-90-40.29-90-90
			C167.5,206.541,167.5,131.892,167.5,120z"/>
		<circle style="fill:#1E81CE;" cx="460" cy="217.5" r="7.5"/>
		<circle style="fill:#1E81CE;" cx="430" cy="442.5" r="7.5"/>
		<circle style="fill:#1E81CE;" cx="390" cy="337.5" r="7.5"/>
		<circle style="fill:#1E81CE;" cx="375" cy="42.5" r="7.5"/>
		<circle style="fill:#1E81CE;" cx="160" cy="412.5" r="7.5"/>
		<circle style="fill:#1E81CE;" cx="105" cy="162.5" r="7.5"/>
		<circle style="fill:#1E81CE;" cx="75" cy="277.5" r="7.5"/>
		<circle style="fill:#1E81CE;" cx="50" cy="57.5" r="7.5"/>
		<path style="fill:#1E81CE;" d="M202.5,175h-35c-2.761,0-5-2.239-5-5s2.239-5,5-5h35c2.761,0,5,2.239,5,5S205.261,175,202.5,175z"
			/>
		<path style="fill:#1E81CE;" d="M347.5,175h-35c-2.762,0-5-2.239-5-5s2.238-5,5-5h35c2.762,0,5,2.239,5,5S350.262,175,347.5,175z"
			/>
		<path style="fill:#1E81CE;" d="M202.5,155h-35c-2.761,0-5-2.239-5-5s2.239-5,5-5h35c2.761,0,5,2.239,5,5S205.261,155,202.5,155z"
			/>
		<path style="fill:#1E81CE;" d="M202.5,135h-35c-2.761,0-5-2.239-5-5s2.239-5,5-5h35c2.761,0,5,2.239,5,5S205.261,135,202.5,135z"
			/>
		<path style="fill:#1E81CE;" d="M347.5,155h-35c-2.762,0-5-2.239-5-5s2.238-5,5-5h35c2.762,0,5,2.239,5,5S350.262,155,347.5,155z"
			/>
		<path style="fill:#1E81CE;" d="M347.5,135h-35c-2.762,0-5-2.239-5-5s2.238-5,5-5h35c2.762,0,5,2.239,5,5S350.262,135,347.5,135z"
			/>
		<path style="fill:#1E81CE;" d="M202.5,215h-35c-2.761,0-5-2.239-5-5s2.239-5,5-5h35c2.761,0,5,2.239,5,5S205.261,215,202.5,215z"
			/>
		<path style="fill:#1E81CE;" d="M202.5,195h-35c-2.761,0-5-2.239-5-5s2.239-5,5-5h35c2.761,0,5,2.239,5,5S205.261,195,202.5,195z"
			/>
		<path style="fill:#1E81CE;" d="M347.5,215h-35c-2.762,0-5-2.239-5-5s2.238-5,5-5h35c2.762,0,5,2.239,5,5S350.262,215,347.5,215z"
			/>
		<path style="fill:#1E81CE;" d="M347.5,195h-35c-2.762,0-5-2.239-5-5s2.238-5,5-5h35c2.762,0,5,2.239,5,5S350.262,195,347.5,195z"
			/>
		<path style="fill:#1E81CE;" d="M257.5,320c-52.383,0-95-42.617-95-95V120c0-52.383,42.617-95,95-95
			c25.387,0,49.244,9.882,67.177,27.825C342.618,70.756,352.5,94.613,352.5,120v105C352.5,277.383,309.883,320,257.5,320z M257.5,35
			c-46.869,0-85,38.131-85,85v105c0,46.869,38.131,85,85,85s85-38.131,85-85V120c0-22.715-8.841-44.06-24.895-60.104
			C301.56,43.841,280.215,35,257.5,35z"/>
		<path style="fill:#1E81CE;" d="M312.5,495h-110c-16.542,0-30-13.458-30-30c0-8.017,3.12-15.551,8.785-21.216
			C186.949,438.12,194.483,435,202.5,435h35c2.761,0,5,2.238,5,5s-2.239,5-5,5h-35c-5.346,0-10.369,2.079-14.145,5.855
			S182.5,459.654,182.5,465c0,11.028,8.972,20,20,20h110c5.346,0,10.369-2.079,14.145-5.855S332.5,470.346,332.5,465
			c0-11.028-8.973-20-20-20h-35c-2.762,0-5-2.238-5-5s2.238-5,5-5h35c16.542,0,30,13.458,30,30c0,8.017-3.119,15.551-8.785,21.216
			C328.051,491.88,320.517,495,312.5,495z"/>
		<path style="fill:#1E81CE;" d="M277.5,445h-40c-2.761,0-5-2.238-5-5v-82.411c-28.518-5.564-54.528-20.683-73.615-42.881
			C138.646,291.169,127.5,261.086,127.5,230v-45c0-2.761,2.239-5,5-5s5,2.239,5,5v45c0,59.253,42.39,109.074,100.793,118.464
			c2.424,0.39,4.207,2.481,4.207,4.937V435h30v-81.6c0-2.455,1.782-4.547,4.207-4.937C335.11,339.074,377.5,289.253,377.5,230v-45
			c0-2.761,2.238-5,5-5s5,2.239,5,5v45c0,31.086-11.146,61.169-31.385,84.708c-19.088,22.198-45.098,37.316-73.615,42.881V440
			C282.5,442.762,280.262,445,277.5,445z"/>
		<path style="fill:#1E81CE;" d="M257.5,320c-2.761,0-5-2.238-5-5V30c0-2.761,2.239-5,5-5c2.762,0,5,2.239,5,5v285
			C262.5,317.762,260.262,320,257.5,320z"/>
		<path style="fill:#1E81CE;" d="M442.5,150c-19.299,0-35-15.701-35-35s15.701-35,35-35s35,15.701,35,35S461.799,150,442.5,150z
			 M442.5,90c-13.785,0-25,11.215-25,25s11.215,25,25,25s25-11.215,25-25S456.285,90,442.5,90z"/>
		<path style="fill:#1E81CE;" d="M92.5,405c-13.785,0-25-11.215-25-25s11.215-25,25-25s25,11.215,25,25S106.285,405,92.5,405z
			 M92.5,365c-8.271,0-15,6.729-15,15s6.729,15,15,15s15-6.729,15-15S100.771,365,92.5,365z"/>
	</g>
</g>
<g id="Layer_1">
</g>
</svg>
