<svg width="155px" height="120px" viewBox="0 0 98 76" fill="none" xmlns="https://www.w3.org/2000/svg">
<rect width="98" height="76" fill="#0F1015"/>
<mask id="path-2-inside-1_3155_94305" fill="white">
<path d="M23.2954 27.3429C23.2954 25.1224 25.0955 23.3223 27.316 23.3223H98.0003V75.9995H23.2954V27.3429Z"/>
</mask>
<path d="M23.2954 27.3429C23.2954 25.1224 25.0955 23.3223 27.316 23.3223H98.0003V75.9995H23.2954V27.3429Z" fill="#1C1E26"/>
<path d="M22.4954 27.3429C22.4954 24.6805 24.6537 22.5223 27.316 22.5223H98.0003V24.1223H27.316C25.5373 24.1223 24.0954 25.5642 24.0954 27.3429H22.4954ZM98.0003 75.9995H23.2954H98.0003ZM22.4954 75.9995V27.3429C22.4954 24.6805 24.6537 22.5223 27.316 22.5223V24.1223C25.5373 24.1223 24.0954 25.5642 24.0954 27.3429V75.9995H22.4954ZM98.0003 23.3223V75.9995V23.3223Z" fill="#5C5F66" mask="url(#path-2-inside-1_3155_94305)"/>
<path d="M31.7117 43.1484C31.9047 42.5936 32.1073 42.0098 32.3196 41.3971C32.5319 40.7843 32.7369 40.2029 32.9348 39.6529L34.1651 36.1067C34.3918 35.4699 34.5945 34.8957 34.773 34.3843C34.9515 33.868 35.1324 33.3494 35.3158 32.8283H37.5231C37.7113 33.3639 37.8922 33.8873 38.0659 34.3988C38.2444 34.9102 38.4446 35.4819 38.6666 36.114L39.8896 39.6674C40.0874 40.2367 40.2901 40.8229 40.4975 41.426C40.7098 42.0243 40.9101 42.5984 41.0982 43.1484H39.3324C39.1442 42.5646 38.9512 41.9664 38.7534 41.3536C38.5556 40.7361 38.3674 40.1523 38.1889 39.6023L36.4809 34.3192H36.3362L34.6065 39.5516C34.4184 40.1209 34.223 40.7168 34.0203 41.3392C33.8177 41.9616 33.6199 42.5646 33.4269 43.1484H31.7117ZM33.8322 40.7168L33.9914 39.4141H38.9995L39.1297 40.7168H33.8322ZM44.144 43.3004C43.7339 43.3004 43.3673 43.2184 43.044 43.0544C42.7207 42.8855 42.465 42.6443 42.2769 42.3306C42.0935 42.0122 42.0018 41.6262 42.0018 41.1727C42.0018 40.7723 42.0694 40.4369 42.2045 40.1667C42.3444 39.8917 42.5277 39.6674 42.7545 39.4937C42.9813 39.32 43.2346 39.1849 43.5144 39.0884C43.7942 38.9919 44.0765 38.922 44.3611 38.8785L46.4961 38.5456C46.5154 38.1452 46.4551 37.8388 46.3152 37.6265C46.1801 37.4142 45.9871 37.2695 45.7362 37.1923C45.4901 37.1151 45.2103 37.0765 44.8967 37.0765C44.7327 37.0765 44.5541 37.0886 44.3611 37.1127C44.173 37.1368 43.9728 37.1778 43.7605 37.2357C43.553 37.2888 43.3335 37.3563 43.1019 37.4384C42.8751 37.5156 42.6411 37.6096 42.3999 37.7206L42.313 36.3456C42.4916 36.2732 42.6918 36.2032 42.9137 36.1357C43.1357 36.0681 43.3745 36.0078 43.6302 35.9547C43.8907 35.8968 44.1585 35.8534 44.4335 35.8245C44.7085 35.7955 44.9884 35.7811 45.273 35.7811C45.8423 35.7811 46.3296 35.8655 46.7349 36.0344C47.1402 36.2032 47.4514 36.4734 47.6685 36.8449C47.8856 37.2116 47.9942 37.6892 47.9942 38.2779C47.9942 38.5094 47.9942 38.7965 47.9942 39.1391C47.9942 39.4816 47.9942 39.8001 47.9942 40.0944V40.9628C47.9942 41.3054 47.9942 41.6528 47.9942 42.005C47.9942 42.3572 47.9942 42.7383 47.9942 43.1484H46.5974L46.5106 42.1931H46.3731C46.2331 42.3717 46.057 42.5453 45.8448 42.7142C45.6373 42.8831 45.3888 43.023 45.0993 43.134C44.8147 43.2449 44.4962 43.3004 44.144 43.3004ZM44.6506 42.0701C44.8822 42.0701 45.109 42.0194 45.3309 41.9181C45.5577 41.812 45.7676 41.6624 45.9606 41.4694C46.1535 41.2764 46.32 41.0424 46.4599 40.7674V39.4937C46.3875 39.5371 46.2935 39.5781 46.1777 39.6167C46.0667 39.6553 45.8978 39.6987 45.6711 39.747C45.4443 39.7952 45.1259 39.8556 44.7158 39.9279C44.4794 39.9665 44.2767 40.0365 44.1078 40.1378C43.939 40.2391 43.8063 40.3718 43.7098 40.5358C43.6181 40.6951 43.5723 40.8856 43.5723 41.1076C43.5723 41.4598 43.6784 41.7083 43.8907 41.853C44.1078 41.9977 44.3611 42.0701 44.6506 42.0701Z" fill="white"/>
</svg>
